<svg width="579" height="159" viewBox="0 0 579 159" fill="none" xmlns="http://www.w3.org/2000/svg">
<path d="M168.757 123V35.7273H203.189C209.808 35.7273 215.447 36.9915 220.107 39.5199C224.766 42.0199 228.317 45.5 230.76 49.9602C233.232 54.392 234.467 59.5057 234.467 65.3011C234.467 71.0966 233.217 76.2102 230.717 80.642C228.217 85.0739 224.595 88.5256 219.851 90.9972C215.135 93.4687 209.425 94.7045 202.72 94.7045H180.774V79.9176H199.737C203.288 79.9176 206.214 79.3068 208.516 78.0852C210.845 76.8352 212.578 75.1165 213.714 72.929C214.879 70.7131 215.462 68.1705 215.462 65.3011C215.462 62.4034 214.879 59.875 213.714 57.7159C212.578 55.5284 210.845 53.8381 208.516 52.6449C206.186 51.4233 203.232 50.8125 199.652 50.8125H187.209V123H168.757ZM246.112 123V57.5455H263.711V68.9659H264.393C265.586 64.9034 267.589 61.8352 270.401 59.7614C273.214 57.6591 276.452 56.608 280.117 56.608C281.026 56.608 282.006 56.6648 283.058 56.7784C284.109 56.892 285.032 57.0483 285.827 57.2472V73.3551C284.975 73.0994 283.796 72.8722 282.29 72.6733C280.785 72.4744 279.407 72.375 278.157 72.375C275.487 72.375 273.1 72.9574 270.998 74.1222C268.924 75.2585 267.276 76.8494 266.055 78.8949C264.862 80.9403 264.265 83.2983 264.265 85.9688V123H246.112ZM321.996 124.278C315.263 124.278 309.467 122.915 304.609 120.188C299.78 117.432 296.058 113.54 293.445 108.511C290.831 103.455 289.524 97.4744 289.524 90.571C289.524 83.8381 290.831 77.929 293.445 72.8438C296.058 67.7585 299.737 63.7955 304.482 60.9545C309.254 58.1136 314.851 56.6932 321.271 56.6932C325.589 56.6932 329.609 57.3892 333.331 58.7812C337.081 60.1449 340.348 62.2045 343.132 64.9602C345.945 67.7159 348.132 71.1818 349.695 75.358C351.257 79.5057 352.038 84.3636 352.038 89.9318V94.9176H296.768V83.6676H334.95C334.95 81.054 334.382 78.7386 333.246 76.7216C332.109 74.7045 330.533 73.1278 328.516 71.9915C326.527 70.8267 324.212 70.2443 321.57 70.2443C318.814 70.2443 316.371 70.8835 314.24 72.1619C312.138 73.4119 310.49 75.1023 309.297 77.233C308.104 79.3352 307.493 81.679 307.464 84.2642V94.9602C307.464 98.1989 308.061 100.997 309.254 103.355C310.476 105.713 312.195 107.531 314.411 108.81C316.626 110.088 319.254 110.727 322.294 110.727C324.311 110.727 326.158 110.443 327.834 109.875C329.51 109.307 330.945 108.455 332.138 107.318C333.331 106.182 334.24 104.79 334.865 103.142L351.655 104.25C350.803 108.284 349.055 111.807 346.413 114.818C343.8 117.801 340.419 120.131 336.271 121.807C332.152 123.455 327.393 124.278 321.996 124.278ZM364.226 123V35.7273H382.379V68.5398H382.933C383.729 66.7784 384.879 64.9886 386.385 63.1705C387.919 61.3239 389.908 59.7898 392.351 58.5682C394.822 57.3182 397.891 56.6932 401.555 56.6932C406.328 56.6932 410.732 57.9432 414.766 60.4432C418.8 62.9148 422.024 66.6506 424.439 71.6506C426.854 76.6222 428.061 82.858 428.061 90.358C428.061 97.6591 426.882 103.824 424.524 108.852C422.195 113.852 419.013 117.645 414.979 120.23C410.973 122.787 406.484 124.065 401.513 124.065C397.99 124.065 394.993 123.483 392.521 122.318C390.078 121.153 388.075 119.69 386.513 117.929C384.95 116.139 383.757 114.335 382.933 112.517H382.124V123H364.226ZM381.996 90.2727C381.996 94.1648 382.536 97.5597 383.615 100.457C384.695 103.355 386.257 105.614 388.303 107.233C390.348 108.824 392.834 109.619 395.76 109.619C398.714 109.619 401.214 108.81 403.26 107.19C405.305 105.543 406.854 103.27 407.905 100.372C408.984 97.446 409.524 94.0795 409.524 90.2727C409.524 86.4943 408.999 83.1705 407.947 80.3011C406.896 77.4318 405.348 75.1875 403.303 73.5682C401.257 71.9489 398.743 71.1392 395.76 71.1392C392.805 71.1392 390.305 71.9205 388.26 73.483C386.243 75.0455 384.695 77.2614 383.615 80.1307C382.536 83 381.996 86.3807 381.996 90.2727ZM440.174 123V57.5455H458.327V123H440.174ZM449.293 49.108C446.594 49.108 444.279 48.2131 442.347 46.4233C440.444 44.6051 439.492 42.4318 439.492 39.9034C439.492 37.4034 440.444 35.2585 442.347 33.4688C444.279 31.6506 446.594 30.7415 449.293 30.7415C451.992 30.7415 454.293 31.6506 456.197 33.4688C458.129 35.2585 459.094 37.4034 459.094 39.9034C459.094 42.4318 458.129 44.6051 456.197 46.4233C454.293 48.2131 451.992 49.108 449.293 49.108ZM507.685 57.5455V71.1818H468.267V57.5455H507.685ZM477.216 41.8636H495.369V102.886C495.369 104.562 495.625 105.869 496.136 106.807C496.648 107.716 497.358 108.355 498.267 108.724C499.205 109.094 500.284 109.278 501.506 109.278C502.358 109.278 503.21 109.207 504.062 109.065C504.915 108.895 505.568 108.767 506.023 108.682L508.878 122.19C507.969 122.474 506.69 122.801 505.043 123.17C503.395 123.568 501.392 123.81 499.034 123.895C494.659 124.065 490.824 123.483 487.528 122.148C484.261 120.812 481.719 118.739 479.901 115.926C478.082 113.114 477.188 109.562 477.216 105.273V41.8636ZM573.15 76.2102L556.531 77.233C556.246 75.8125 555.636 74.5341 554.698 73.3977C553.761 72.233 552.525 71.3097 550.991 70.6278C549.485 69.9176 547.681 69.5625 545.579 69.5625C542.766 69.5625 540.394 70.1591 538.462 71.3523C536.531 72.517 535.565 74.0795 535.565 76.0398C535.565 77.6023 536.19 78.9233 537.44 80.0028C538.69 81.0824 540.835 81.9489 543.874 82.6023L555.721 84.9886C562.085 86.2955 566.829 88.3977 569.954 91.2955C573.079 94.1932 574.641 98 574.641 102.716C574.641 107.006 573.377 110.77 570.849 114.009C568.349 117.247 564.911 119.776 560.536 121.594C556.19 123.384 551.175 124.278 545.494 124.278C536.829 124.278 529.925 122.474 524.783 118.866C519.67 115.23 516.673 110.287 515.792 104.037L533.647 103.099C534.187 105.741 535.494 107.759 537.567 109.151C539.641 110.514 542.298 111.196 545.536 111.196C548.718 111.196 551.275 110.585 553.207 109.364C555.167 108.114 556.161 106.509 556.19 104.548C556.161 102.901 555.465 101.551 554.102 100.5C552.738 99.4205 550.636 98.5966 547.795 98.0284L536.46 95.7699C530.067 94.4915 525.309 92.2756 522.184 89.1222C519.087 85.9687 517.539 81.9489 517.539 77.0625C517.539 72.858 518.675 69.2358 520.948 66.196C523.249 63.1562 526.474 60.8125 530.621 59.1648C534.798 57.517 539.684 56.6932 545.281 56.6932C553.548 56.6932 560.053 58.4403 564.798 61.9347C569.57 65.429 572.354 70.1875 573.15 76.2102Z" fill="url(#paint0_linear_22_14)"/>
<path d="M122.062 60.7928L122.074 60.7551L122.089 60.7095C122.594 59.1598 123.222 57.2309 123.603 54.9906C124.215 51.3054 124.291 47.5522 123.831 43.8454C123.412 40.2828 122.465 36.8012 121.02 33.5137C118.608 28.0704 115.023 23.2182 110.517 19.2991C105.989 15.3257 100.609 12.4274 94.7843 10.8238C91.2861 9.85035 87.6701 9.35647 84.0369 9.35596C83.5614 9.35596 83.0858 9.35596 82.6008 9.38113C76.7934 9.56115 71.1045 11.0572 65.9693 13.7549C63.5393 15.0371 61.4342 16.4058 59.3988 17.729C58.6998 18.1852 58.0403 18.6132 57.392 19.0222C52.1229 22.345 46.7715 25.7228 41.607 28.9905L41.4199 29.1101L38.6285 30.8737C37.4777 31.6006 36.2951 32.3322 35.1522 33.0386L35.1221 33.0559C32.299 34.8007 29.3791 36.6036 26.4751 38.619C16.6788 45.4172 10.9215 55.6466 10.679 66.6848V66.9082C10.6425 74.7746 12.0406 80.8884 15.2141 86.7315C15.7943 87.7998 16.4268 88.8523 17.0925 89.8577L17.4634 90.4193L16.8674 90.7418C14.0569 92.3151 11.9772 94.9614 11.0023 98.1787C10.7408 99.044 10.5268 99.8543 10.3493 100.569V100.592C10.2732 100.891 10.1907 101.201 10.1115 101.505C8.66581 106.841 8.4851 112.463 9.57252 118.213C10.5352 123.27 12.5489 128.073 15.4852 132.316C19.2721 137.832 24.045 142.18 29.6834 145.24C34.2543 147.729 39.2695 149.31 44.4492 149.897C46.0178 150.077 47.5955 150.168 49.1746 150.169C55.151 150.183 61.0467 148.8 66.3846 146.132C68.9716 144.847 71.1274 143.44 73.2103 142.08H73.2198C73.9014 141.634 74.5466 141.213 75.1712 140.821C79.5668 138.063 83.9957 135.263 88.2788 132.555L90.04 131.441C94.8351 128.411 100.269 124.976 105.563 121.611C110.075 118.745 113.886 114.918 116.721 110.408C119.92 105.388 121.809 99.6566 122.219 93.7311C122.695 87.5032 121.617 81.2548 119.08 75.5392C118.173 73.4988 117.09 71.5401 115.843 69.685L115.466 69.1218L116.057 68.7883C118.81 67.2201 120.857 64.6698 121.781 61.6566C121.872 61.3765 121.963 61.0808 122.062 60.7928ZM120.16 54.4148C119.822 56.405 119.259 58.1324 118.761 59.6569V59.6758V59.6852C118.66 59.9999 118.554 60.3146 118.456 60.6292C118.047 61.9841 117.317 63.2223 116.328 64.2404C115.339 65.2586 114.119 66.0271 112.77 66.4818C111.848 66.7938 110.882 66.9532 109.908 66.9538C109.672 66.9538 109.433 66.9444 109.203 66.9255C111.975 69.8733 114.233 73.2593 115.883 76.9442C118.19 82.1445 119.17 87.8292 118.736 93.4951C118.364 98.8517 116.655 104.032 113.763 108.57C111.201 112.647 107.757 116.106 103.68 118.697C98.362 122.075 92.9122 125.521 88.1029 128.56L86.4258 129.621L86.4099 129.632C82.1189 132.344 77.6821 135.149 73.3038 137.896C72.6476 138.307 71.985 138.741 71.2828 139.199C69.2871 140.502 67.2248 141.85 64.8201 143.044C59.9663 145.469 54.6055 146.727 49.1714 146.714C47.7258 146.714 46.2814 146.63 44.8455 146.464C40.115 145.93 35.5344 144.487 31.359 142.216C26.2135 139.419 21.848 135.437 18.3607 130.378C15.6964 126.529 13.8685 122.173 12.9933 117.585C12.0042 112.349 12.1643 107.244 13.4689 102.412C13.5576 102.088 13.6432 101.756 13.7256 101.435V101.426C13.9095 100.713 14.0982 99.9786 14.3391 99.1793C15.5549 95.1376 18.4986 93.6178 20.1455 93.0719C21.0545 92.7748 22.0054 92.6239 22.9624 92.6251C23.1985 92.6251 23.4379 92.6329 23.6678 92.6518C21.556 90.3644 19.7402 87.8244 18.2624 85.0906C15.3806 79.7871 14.1108 74.1799 14.141 66.9145V66.787V66.7776V66.7666C14.3597 56.8439 19.5749 47.6213 28.4486 41.4619C31.2765 39.5 34.1552 37.7207 36.9434 35.9995C38.107 35.2821 39.3069 34.5395 40.4784 33.7969L43.1303 32.1198L43.2683 32.0333C48.4787 28.7404 53.865 25.3342 59.2387 21.9469C59.9108 21.5222 60.5845 21.0848 61.2994 20.6207C63.2619 19.3432 65.2924 18.0216 67.5814 16.8149C72.2504 14.3637 77.4228 13.0053 82.7023 12.8439C83.1366 12.8282 83.5789 12.8203 84.0132 12.8203C87.328 12.8205 90.6272 13.2709 93.819 14.1592C99.1375 15.6235 104.051 18.2694 108.187 21.8966C112.312 25.4848 115.594 29.9265 117.804 34.9092C119.109 37.8847 119.964 41.0355 120.34 44.2592C120.771 47.6353 120.712 51.0553 120.164 54.4148H120.16Z" fill="#7A3CED"/>
<path d="M130.734 61.4399C131.617 58.715 132.244 55.9148 132.607 53.0752C133.502 46.5414 132.847 39.8983 130.868 33.5966C129.109 27.9991 126.19 23.0379 122.538 18.481C117.871 12.6681 112.121 8.19576 105.383 4.95955C102.349 3.49821 99.1691 2.35472 95.8959 1.54767C92.9876 0.833488 90.0375 0.311519 87.0289 0.222038C86.6714 0.210439 86.6715 0.203817 86.4526 0H85.7026C85.584 0.180618 85.4019 0.104388 85.2482 0.09776C84.2292 0.0546768 83.2119 0.062975 82.1929 0.111029C82.0626 0.111029 81.8972 0.192217 81.8187 0H81.4428C81.3159 0.309868 81.0252 0.198845 80.8147 0.207131C78.2332 0.3218 75.6688 0.683051 73.1572 1.28587C67.7928 2.54003 62.6974 4.73474 58.1111 7.76657C54.8604 9.90085 51.5328 11.9208 48.2553 14.007C44.8642 16.1612 41.4881 18.3352 38.1004 20.491C33.8256 23.2102 29.5357 25.9079 25.2677 28.6371C21.9751 30.7432 18.6341 32.7697 15.7459 35.4442C11.6782 39.204 8.41244 43.5273 6.04201 48.515C4.83851 51.0433 3.89979 53.6874 3.2406 56.4058C2.16777 60.7894 1.75069 65.3057 2.00277 69.8097C2.18193 73.0254 2.71521 76.2121 3.59307 79.3128C4.39475 82.1376 5.49794 84.8695 6.88393 87.4622C6.97038 87.5852 7.01349 87.7331 7.00654 87.8829C6.99959 88.0327 6.94298 88.1761 6.84551 88.2907C4.91738 91.2338 3.37323 94.4075 2.24999 97.7359C1.66824 99.4717 1.19955 101.243 0.846801 103.038C-0.882154 111.92 0.0583209 120.603 3.46779 128.956C5.32203 133.5 7.91797 137.584 11.0702 141.336C22.3911 154.806 41.2208 161.691 58.6356 158.021C60.3577 157.66 62.0586 157.206 63.7306 156.66C66.5632 155.743 69.295 154.544 71.8843 153.081C74.1244 151.812 76.2677 150.387 78.4443 149.016C84.6307 145.119 90.8115 141.213 96.9867 137.298C102.142 134.035 107.33 130.822 112.434 127.481C117.166 124.381 121.007 120.376 124.11 115.662C126.191 112.496 127.834 109.068 128.997 105.469C131.207 98.6754 131.588 91.2369 130.355 84.2227C129.608 79.8825 128.17 75.6876 126.097 71.7948C126.007 71.6447 125.966 71.4713 125.978 71.2974C125.99 71.1235 126.054 70.9572 126.163 70.8205C128.102 67.9098 129.639 64.755 130.734 61.4399ZM124.015 74.1412C126.842 80.5058 128.044 87.4634 127.515 94.3986C127.054 101.017 124.941 107.419 121.367 113.027C118.197 118.065 113.935 122.341 108.892 125.543C103.301 129.095 97.578 132.709 92.5298 135.899L90.6673 137.071C86.1569 139.924 81.4796 142.87 76.8456 145.782C76.2058 146.183 75.5326 146.622 74.816 147.089C72.5642 148.559 70.2355 150.08 67.3873 151.495C61.4364 154.467 54.8641 156.007 48.2018 155.993C46.4479 155.991 44.6955 155.891 42.9531 155.691C37.197 155.037 31.6238 153.28 26.5439 150.516C20.2779 147.116 14.9724 142.291 10.7712 136.174C7.49452 131.442 5.24787 126.084 4.1744 120.442C2.9633 114.041 3.17211 107.774 4.78246 101.814C4.86431 101.511 4.9495 101.192 5.02467 100.886V100.858C5.22513 100.084 5.45065 99.2007 5.73797 98.2495C6.70465 94.9458 8.73897 92.0487 11.5279 90.0041C11.117 89.3297 10.7194 88.6436 10.3435 87.9493C6.80376 81.4405 5.24184 74.6565 5.28361 65.957V65.9438V65.7019V65.6869C5.55757 53.3138 11.9873 41.8653 22.9273 34.2776C26.0394 32.1235 29.1449 30.203 32.1467 28.3504L32.1785 28.3305C33.3779 27.5898 34.619 26.8226 35.8201 26.0653L38.7619 24.2061L38.9506 24.0868C44.4014 20.6435 50.0393 17.0808 55.597 13.5795C56.2652 13.1569 56.9551 12.7095 57.6818 12.2373C59.8718 10.8139 62.1353 9.34077 64.7931 7.94223C70.5175 4.93386 76.8604 3.26566 83.3355 3.06553C83.8667 3.04731 84.4046 3.03736 84.9341 3.03736C88.9763 3.03746 92.9995 3.58664 96.8915 4.66956C103.368 6.45225 109.351 9.67369 114.387 14.0899C119.39 18.4396 123.372 23.825 126.05 29.8666C127.665 33.539 128.724 37.4282 129.192 41.4079C129.704 45.532 129.618 49.7077 128.936 53.8076C128.507 56.3329 127.816 58.4473 127.266 60.159L127.251 60.2071L127.238 60.2485C127.142 60.5435 127.042 60.8467 126.95 61.1417C125.974 64.3045 124 67.0726 121.317 69.0375C122.331 70.6765 123.233 72.3817 124.015 74.1412Z" fill="#7A3CED"/>
<path d="M110.773 37.0333C109.036 33.0979 106.453 29.5917 103.205 26.7635C99.9844 23.9231 96.156 21.8531 92.0115 20.7111C89.2027 19.9247 86.2884 19.5781 83.3729 19.6838C79.3247 19.8 75.3575 20.8423 71.7776 22.7302C69.0234 24.1839 66.4782 25.9866 63.8503 27.6503C57.4583 31.6981 51.0696 35.7519 44.6841 39.8115C40.684 42.3507 36.5915 44.7591 32.7097 47.4662C25.5309 52.4735 22.0395 59.4951 21.8888 66.3647C21.858 72.6642 22.9095 76.851 25.0286 80.7664C27.7407 85.7737 31.5934 89.689 36.6061 92.4285C40.0934 94.3502 43.9523 95.5067 47.9244 95.8206C52.8609 96.2179 57.582 95.4474 62.0941 93.4154C64.1727 92.4786 66.0181 91.1541 67.9266 89.941C71.1831 87.8832 74.4379 85.8237 77.6636 83.7191C80.0354 82.1716 82.5321 81.4852 85.3592 82.1668C88.559 82.9373 91.3262 85.7817 91.6648 89.2933C91.9775 92.5141 90.7057 95.0016 87.9595 96.7461C82.8831 99.9766 77.8105 103.207 72.7416 106.438C66.3275 110.529 59.902 114.603 53.5122 118.731C51.082 120.303 48.5611 121.254 45.6368 120.474C43.226 119.828 41.3839 118.434 40.1672 116.26C39.221 114.569 38.9537 112.734 39.2032 110.823C39.2648 110.35 39.0898 110.169 38.6345 110.045C36.2922 109.379 34.0066 108.528 31.7992 107.502C28.418 105.966 25.3186 103.965 22.3424 101.773C21.9261 101.466 21.8337 101.574 21.709 101.991C21.4028 103.012 21.163 104.049 20.8859 105.076C19.8474 108.932 19.8183 112.829 20.549 116.706C21.2206 120.21 22.6183 123.535 24.6528 126.47C27.3244 130.379 30.6716 133.556 34.845 135.839C38.1034 137.625 41.6809 138.758 45.3759 139.174C50.7774 139.794 55.9181 138.972 60.7785 136.544C63.5522 135.159 66.065 133.34 68.6799 131.699C73.7218 128.522 78.755 125.332 83.7796 122.13C89.0774 118.756 94.3726 115.381 99.665 112.004C102.729 110.048 105.316 107.434 107.238 104.354C109.416 100.93 110.701 97.0179 110.975 92.9729C111.317 88.5979 110.567 84.2066 108.791 80.1913C107.319 76.8526 105.212 73.9354 102.623 71.372C99.0491 67.8103 94.5778 65.2753 89.6801 64.0339C86.4826 63.2081 83.1654 62.9425 79.8767 63.2489C75.8458 63.6091 72.0887 64.7899 68.6637 66.8946C64.0998 69.7019 59.6023 72.6158 55.0886 75.5022C54.0291 76.179 52.9436 76.8041 51.7139 77.0626C47.9309 77.8589 44.8267 76.7201 42.5617 73.5898C40.1121 70.1977 40.7051 65.1824 44.433 62.753C46.4663 61.4269 48.5271 60.1444 50.5717 58.8376C59.4857 53.1487 68.4007 47.4619 77.3169 41.7773C78.8852 40.7823 80.3563 39.6193 82.1449 38.9781C85.3625 37.8264 88.2933 38.3788 90.845 40.5546C93.0419 42.4283 93.8989 44.9158 93.6527 47.7941C93.5684 48.7633 93.583 48.7633 94.4255 49.0508C94.8078 49.1784 95.1853 49.3173 95.5693 49.4369C99.3494 50.6304 102.961 52.3012 106.316 54.4086C107.766 55.3083 109.133 56.3291 110.528 57.3064C110.758 57.4679 110.941 57.6084 111.059 57.2256C111.601 55.5005 112.229 53.7884 112.529 52.0067C112.958 49.3951 113.007 46.7355 112.676 44.1097C112.396 41.6702 111.754 39.2855 110.773 37.0333Z" fill="url(#paint1_linear_22_14)"/>
<defs>
<linearGradient id="paint0_linear_22_14" x1="370" y1="7" x2="370" y2="152" gradientUnits="userSpaceOnUse">
<stop stop-color="#6647EC"/>
<stop offset="1" stop-color="#9D1ADB"/>
</linearGradient>
<linearGradient id="paint1_linear_22_14" x1="66.4697" y1="19.6653" x2="66.4697" y2="139.372" gradientUnits="userSpaceOnUse">
<stop stop-color="#6647EC"/>
<stop offset="1" stop-color="#9D1ADB"/>
</linearGradient>
</defs>
</svg>
